Patient4_TMGait_0pt3_02_left_18_GRF.mot
version=1
nRows=78
nColumns=19
inDegrees=no
endheader
time	F1x	F1y	F1z	M1x	M1y	M1z	F2x	F2y	F2z	M2x	M2y	M2z	EC1x	EC1y	EC1z	EC2x	EC2y	EC2z
34.92	2.4583	4.1453	3.6683	-1.6929	-3.8073	2.0631	-13.3355	779.0129	-53.2277	279.3769	55.6308	733.942	-0.0592	0.0182	-0.0073	-0.0462	0.0165	0.9585
34.9406	1.4369	2.736	2.4994	-1.1283	-2.6921	1.3365	-12.327	791.8986	-51.4391	284.4639	53.8766	741.8378	-0.0592	0.0182	-0.0073	-0.0462	0.0165	0.9585
34.9611	0.56319	1.5405	1.481	-0.63953	-1.7143	0.72864	-11.0397	807.4072	-48.7427	290.8662	51.1624	751.1697	-0.0592	0.0182	-0.0073	-0.0462	0.0165	0.9585
34.9817	-0.10621	0.6319	0.68352	-0.26139	-0.9448	0.2796	-9.5613	824.1762	-45.1352	298.1485	47.4973	760.9066	-0.0592	0.0182	-0.0073	-0.0462	0.0165	0.9585
35.0023	-0.57045	0.0073831	0.11632	0.002305	-0.39587	-0.012467	-8.0811	840.3436	-40.7418	305.6208	43.0502	769.6652	-0.0592	0.0182	-0.0073	-0.0462	0.0165	0.9585
35.0229	-0.86171	-0.37703	-0.24338	0.16502	-0.04888	-0.17413	-6.8307	854.0349	-35.833	312.5076	38.1356	776.0985	-0.0592	0.0182	-0.0073	-0.0462	0.0165	0.9585
35.0434	-1.0254	-0.58509	-0.43435	0.25062	0.1294	-0.24334	-5.9914	863.8437	-30.7842	318.1368	33.1407	779.261	-0.0592	0.0182	-0.0073	-0.0462	0.0165	0.9585
35.064	-1.108	-0.68437	-0.50012	0.28627	0.17724	-0.26029	-5.632	869.0008	-26.0034	322.0248	28.4404	778.7166	-0.0592	0.0182	-0.0073	-0.0462	0.0165	0.9585
35.0846	-1.149	-0.73962	-0.4831	0.29925	0.1345	-0.26998	-5.7021	869.1431	-21.9026	323.8258	24.3766	774.3085	-0.0592	0.0182	-0.0073	-0.0462	0.0165	0.9585
35.1051	-1.1792	-0.80646	-0.41754	0.31526	0.036875	-0.31969	-6.0425	864.1339	-18.8233	323.3091	21.2017	765.991	-0.0592	0.0182	-0.0073	-0.0462	0.0165	0.9585
35.1257	-1.2189	-0.93109	-0.32906	0.35721	-0.087087	-0.45438	-6.4132	854.0696	-16.9418	320.3986	19.0057	753.8398	-0.0592	0.0182	-0.0073	-0.0462	0.0165	0.9585
35.1463	-1.2733	-1.1577	-0.23795	0.44509	-0.2148	-0.71354	-6.5272	839.4184	-16.245	315.2401	17.7009	738.1853	-0.0592	0.0182	-0.0073	-0.0462	0.0165	0.9585
35.1669	-1.3282	-1.524	-0.15678	0.59316	-0.32765	-1.1306	-6.1284	821.1094	-16.5689	308.2258	17.0804	719.7228	-0.0592	0.0182	-0.0073	-0.0462	0.0165	0.9585
35.1874	-1.3512	-2.0466	-0.09469	0.80603	-0.40502	-1.7183	-5.0566	800.4964	-17.6547	299.9559	16.8856	699.503	-0.0592	0.0182	-0.0073	-0.0462	0.0165	0.9585
35.208	-1.2928	-2.7	-0.058306	1.072	-0.42221	-2.4503	-3.2559	779.2164	-19.2118	291.1571	16.8677	678.8182	-0.0592	0.0182	-0.0073	-0.0462	0.0165	0.9585
35.2286	-1.0886	-3.3969	-0.053347	1.3552	-0.34772	-3.2354	-0.77589	758.9324	-20.9805	282.5621	16.8379	658.9965	-0.0592	0.0182	-0.0073	-0.0462	0.0165	0.9585
35.2491	-0.66211	-3.9619	-0.082844	1.5835	-0.1469	-3.8976	2.2452	741.0461	-22.7874	274.7882	16.7061	641.157	-0.0592	0.0182	-0.0073	-0.0462	0.0165	0.9585
35.2697	0.066211	-4.1104	-0.15116	1.6409	0.21903	-4.1527	5.6317	726.5469	-24.5431	268.2781	16.4659	626.0759	-0.0592	0.0182	-0.0073	-0.0462	0.0165	0.9585
35.2903	1.1619	-3.4307	-0.26363	1.3615	0.7819	-3.5797	9.2159	715.9733	-26.2131	263.2876	16.1505	614.154	-0.0592	0.0182	-0.0073	-0.0462	0.0165	0.9585
35.3109	2.6464	-1.3777	-0.42455	0.52856	1.5535	-1.6229	12.8598	709.4555	-27.7828	259.9028	15.7969	605.4568	-0.0592	0.0182	-0.0073	-0.0462	0.0165	0.9585
35.3314	4.4605	2.6996	-0.63221	-1.115	2.506	2.3844	16.4596	706.7774	-29.2288	258.0657	15.4191	599.7779	-0.0592	0.0182	-0.0073	-0.0462	0.0165	0.9585
35.352	6.4123	9.4768	-0.87327	-3.834	3.5442	9.1511	19.9247	707.4418	-30.5033	257.5973	15.0012	596.7067	-0.0592	0.0182	-0.0073	-0.0462	0.0165	0.9585
35.3726	8.1157	19.5014	-1.1152	-7.8405	4.4745	19.2749	23.1671	710.6993	-31.5595	258.2074	14.5236	595.6599	-0.0592	0.0182	-0.0073	-0.0462	0.0165	0.9585
35.3931	8.9629	32.9933	-1.2975	-13.2154	4.9861	33.0477	26.1052	715.4853	-32.3775	259.4727	13.9816	595.827	-0.0592	0.0182	-0.0073	-0.0462	0.0165	0.9585
35.4137	8.3229	49.7589	-1.3241	-19.8737	4.7253	50.3643	28.6699	720.3338	-32.9733	260.8105	13.3922	596.0851	-0.0592	0.0182	-0.0073	-0.0462	0.0165	0.9585
35.4343	6.0617	69.453	-1.0585	-27.6652	3.4963	70.9524	30.8064	723.451	-33.383	261.5172	12.7871	595.0474	-0.0592	0.0182	-0.0073	-0.0462	0.0165	0.9585
35.4549	2.4692	91.4761	-0.31324	-36.3343	1.2223	94.2269	32.4523	722.8678	-33.6347	260.8379	12.2042	591.1876	-0.0592	0.0182	-0.0073	-0.0462	0.0165	0.9585
35.4754	-2.0217	114.3871	1.0668	-45.2983	-2.0801	118.693	33.5178	716.6551	-33.7313	258.0562	11.6811	583.0116	-0.0592	0.0182	-0.0073	-0.0462	0.0165	0.9585
35.496	-6.6865	135.8225	2.9579	-53.6374	-5.9868	141.8275	33.9484	703.3559	-33.6637	252.6575	11.2408	569.3835	-0.0592	0.0182	-0.0073	-0.0462	0.0165	0.9585
35.5166	-10.7569	153.6658	4.9646	-60.5501	-9.7695	161.2994	33.7954	682.5518	-33.4329	244.5326	10.8905	549.9717	-0.0592	0.0182	-0.0073	-0.0462	0.0165	0.9585
35.5371	-13.939	167.8362	6.7076	-66.0424	-12.9133	176.896	33.2486	655.2916	-33.044	234.1232	10.6028	525.5915	-0.0592	0.0182	-0.0073	-0.0462	0.0165	0.9585
35.5577	-16.3297	180.4025	7.9924	-70.9567	-15.258	190.6578	32.5753	623.8831	-32.4483	222.3324	10.2773	498.0505	-0.0592	0.0182	-0.0073	-0.0462	0.0165	0.9585
35.5783	-18.1279	194.033	8.8928	-76.3499	-16.9626	205.2651	31.9797	591.1493	-31.5177	210.24	9.7638	469.5815	-0.0592	0.0182	-0.0073	-0.0462	0.0165	0.9585
35.5989	-19.5274	210.6491	9.6448	-82.9625	-18.3496	222.6786	31.5285	559.6771	-30.1405	198.8105	8.9544	442.2497	-0.0592	0.0182	-0.0073	-0.0462	0.0165	0.9585
35.6194	-20.7021	230.7976	10.4695	-90.9804	-19.7228	243.5091	31.1843	531.3079	-28.341	188.6955	7.8608	417.5304	-0.0592	0.0182	-0.0073	-0.0462	0.0165	0.9585
35.64	-21.8004	253.7082	11.4635	-100.0653	-21.2495	267.0557	30.86	506.8624	-26.2998	180.1367	6.6157	396.0817	-0.0592	0.0182	-0.0073	-0.0462	0.0165	0.9585
35.6606	-22.9205	277.9957	12.6241	-109.6361	-22.9697	291.9827	30.4759	486.0593	-24.2628	172.9571	5.3964	377.6814	-0.0592	0.0182	-0.0073	-0.0462	0.0165	0.9585
35.6811	-24.1226	302.5807	13.9342	-119.2335	-24.8823	317.2212	29.9807	467.6475	-22.4206	166.6345	4.3382	361.3509	-0.0592	0.0182	-0.0073	-0.0462	0.0165	0.9585
35.7017	-25.4463	327.2755	15.377	-128.7601	-26.9674	342.5347	29.3233	449.7333	-20.8386	160.4378	3.5016	345.6337	-0.0592	0.0182	-0.0073	-0.0462	0.0165	0.9585
35.7223	-26.8707	352.7713	16.9408	-138.4784	-29.1861	368.4972	28.4293	430.2334	-19.4495	153.6006	2.8765	328.9507	-0.0592	0.0182	-0.0073	-0.0462	0.0165	0.9585
35.7429	-28.2914	380.1538	18.6667	-148.8148	-31.5221	396.0386	27.2018	407.3563	-18.0945	145.4903	2.4025	309.9664	-0.0592	0.0182	-0.0073	-0.0462	0.0165	0.9585
35.7634	-29.5498	410.3062	20.6602	-160.1189	-34.003	425.8887	25.541	380.0095	-16.6005	135.7429	2.0109	287.8921	-0.0592	0.0182	-0.0073	-0.0462	0.0165	0.9585
35.784	-30.4514	443.5019	23.0219	-172.5076	-36.6419	458.1905	23.3985	348.0374	-14.8537	124.3336	1.6515	262.646	-0.0592	0.0182	-0.0073	-0.0462	0.0165	0.9585
35.8046	-30.7824	479.1684	25.7749	-185.7796	-39.3757	492.2909	20.8297	312.2489	-12.8447	111.5765	1.3015	234.8566	-0.0592	0.0182	-0.0073	-0.0462	0.0165	0.9585
35.8251	-30.3645	515.8166	28.8341	-199.3893	-42.0573	526.6994	18.0116	274.267	-10.6816	98.0654	0.96587	205.7373	-0.0592	0.0182	-0.0073	-0.0462	0.0165	0.9585
35.8457	-29.1224	551.2651	31.9774	-212.5382	-44.4525	559.3162	15.208	236.2603	-8.5727	84.578	0.68041	176.8733	-0.0592	0.0182	-0.0073	-0.0462	0.0165	0.9585
35.8663	-27.112	583.186	34.8484	-224.3879	-46.249	587.9662	12.6974	200.5902	-6.7752	71.953	0.50718	149.9675	-0.0592	0.0182	-0.0073	-0.0462	0.0165	0.9585
35.8869	-24.4871	609.7807	37.0633	-234.3017	-47.1431	611.0264	10.7083	169.3866	-5.5137	60.9416	0.50477	126.5358	-0.0592	0.0182	-0.0073	-0.0462	0.0165	0.9585
35.9074	-21.4785	630.1764	38.3608	-241.9811	-46.9736	627.785	9.3889	144.1045	-4.8919	52.0515	0.67851	107.5884	-0.0592	0.0182	-0.0073	-0.0462	0.0165	0.9585
35.928	-18.3787	644.4853	38.7042	-247.4769	-45.8156	638.4799	8.7642	125.1486	-4.8518	45.4161	0.96821	93.3651	-0.0592	0.0182	-0.0073	-0.0462	0.0165	0.9585
35.9486	-15.4826	653.8033	38.2902	-251.1894	-43.9644	644.2597	8.7	111.7139	-5.2055	40.7357	1.2863	83.2355	-0.0592	0.0182	-0.0073	-0.0462	0.0165	0.9585
35.9691	-13.0246	660.2017	37.4892	-253.8819	-41.858	647.1353	8.918	102.0248	-5.7157	37.3596	1.5698	75.8774	-0.0592	0.0182	-0.0073	-0.0462	0.0165	0.9585
35.9897	-11.1229	666.5629	36.7465	-256.6308	-39.9629	649.7978	9.0641	93.9252	-6.1671	34.501	1.8019	69.7076	-0.0592	0.0182	-0.0073	-0.0462	0.0165	0.9585
36.0103	-9.765	676.0375	36.4874	-260.6237	-38.6753	655.1173	8.8352	85.4898	-6.3922	31.4614	1.9804	63.3264	-0.0592	0.0182	-0.0073	-0.0462	0.0165	0.9585
36.0309	-8.8398	691.1935	37.0443	-266.8262	-38.2628	665.3849	8.0409	75.5025	-6.2884	27.8076	2.1095	55.8601	-0.0592	0.0182	-0.0073	-0.0462	0.0165	0.9585
36.0514	-8.1925	713.1729	38.6001	-275.652	-38.8363	681.5808	6.6465	63.6958	-5.8259	23.4583	2.1891	47.132	-0.0592	0.0182	-0.0073	-0.0462	0.0165	0.9585
36.072	-7.6797	741.206	41.17	-286.771	-40.3616	702.9748	4.8265	50.6774	-5.0442	18.6527	2.1922	37.5932	-0.0592	0.0182	-0.0073	-0.0462	0.0165	0.9585
36.0926	-7.2062	772.6692	44.6197	-299.132	-42.6907	727.2018	2.9138	37.6197	-4.0385	13.8336	2.0764	28.091	-0.0592	0.0182	-0.0073	-0.0462	0.0165	0.9585
36.1131	-6.7124	803.6804	48.6905	-311.2017	-45.5792	750.8005	1.2782	25.8124	-2.9442	9.4812	1.812	19.5421	-0.0592	0.0182	-0.0073	-0.0462	0.0165	0.9585
36.1337	-6.1337	830.0059	53.0182	-321.329	-48.6828	770.0107	0.087571	16.2084	-1.9224	5.9464	1.4574	12.6118	-0.0592	0.0182	-0.0073	-0.0462	0.0165	0.9585
36.1543	-5.3767	847.9591	57.1647	-328.1021	-51.5739	781.558	-0.7014	9.1158	-1.087	3.3413	1.1091	7.5095	-0.0592	0.0182	-0.0073	-0.0462	0.0165	0.9585
36.1749	-4.3114	855.1339	60.6697	-330.633	-53.7894	783.2953	-1.1725	4.3162	-0.46838	1.5832	0.81368	4.0532	-0.0592	0.0182	-0.0073	-0.0462	0.0165	0.9585
36.1954	-2.8114	850.7663	63.1303	-328.686	-54.918	774.5343	-1.4161	1.3251	-0.048881	0.49057	0.58422	1.8603	-0.0592	0.0182	-0.0073	-0.0462	0.0165	0.9585
36.216	-0.79212	835.8523	64.249	-322.7083	-54.6536	756.1653	-1.5078	-0.4343	0.21454	-0.15151	0.41179	0.48647	-0.0592	0.0182	-0.0073	-0.0462	0.0165	0.9585
36.2366	1.7942	813.0215	63.8963	-313.7625	-52.8517	730.5357	-1.5005	-1.5212	0.36999	-0.54965	0.27667	-0.49752	-0.0592	0.0182	-0.0073	-0.0462	0.0165	0.9585
36.2571	4.9708	786.0532	62.1796	-303.331	-49.5926	701.0194	-1.4237	-2.4101	0.46277	-0.87879	0.15203	-1.4581	-0.0592	0.0182	-0.0073	-0.0462	0.0165	0.9585
36.2777	8.7183	759.179	59.4409	-293.0402	-45.1835	671.3977	-1.285	-3.4438	0.52807	-1.2648	0.01529	-2.6552	-0.0592	0.0182	-0.0073	-0.0462	0.0165	0.9585
36.2983	12.9707	736.3207	56.171	-284.3724	-40.0814	645.1666	-1.0716	-4.7979	0.58719	-1.772	-0.14803	-4.2134	-0.0592	0.0182	-0.0073	-0.0462	0.0165	0.9585
36.3189	17.6406	720.4276	52.8751	-278.4224	-34.7674	624.9555	-0.75497	-6.4455	0.64599	-2.3898	-0.34546	-6.0755	-0.0592	0.0182	-0.0073	-0.0462	0.0165	0.9585
36.3394	22.602	712.9408	49.9743	-275.7015	-29.6642	612.0889	-0.29782	-8.1088	0.69163	-3.0138	-0.57226	-7.9409	-0.0592	0.0182	-0.0073	-0.0462	0.0165	0.9585
36.36	27.6657	713.4645	47.7764	-276.0144	-25.1236	606.3183	0.33623	-9.2006	0.68879	-3.4236	-0.80416	-9.203	-0.0592	0.0182	-0.0073	-0.0462	0.0165	0.9585
36.3806	32.6194	719.8803	46.4492	-278.5071	-21.3932	605.9345	1.1647	-8.7651	0.57962	-3.2614	-0.98798	-8.8779	-0.0592	0.0182	-0.0073	-0.0462	0.0165	0.9585
36.4011	37.2513	728.8521	46.0109	-281.8658	-18.5987	608.2065	2.1614	-5.4408	0.2859	-2.0184	-1.0336	-5.5655	-0.0592	0.0182	-0.0073	-0.0462	0.0165	0.9585
36.4217	41.3598	736.5205	46.3462	-284.5894	-16.7567	609.9696	3.2275	2.5143	-0.28707	0.95614	-0.80619	2.5241	-0.0592	0.0182	-0.0073	-0.0462	0.0165	0.9585
36.4423	44.7787	739.1881	47.2251	-285.2592	-15.7751	608.1922	4.154	17.0884	-1.2407	6.4063	-0.12245	17.4416	-0.0592	0.0182	-0.0073	-0.0462	0.0165	0.9585
36.4629	47.3936	733.824	48.317	-282.7355	-15.452	600.3934	4.5771	40.2177	-2.6592	15.0558	1.239	41.196	-0.0592	0.0182	-0.0073	-0.0462	0.0165	0.9585
36.4834	49.1259	718.3343	49.2438	-276.2508	-15.5195	584.8597	3.8836	73.3122	-4.5787	27.43	3.5389	75.2622	-0.0592	0.0182	-0.0073	-0.0462	0.0165	0.9585
36.504	49.8856	691.6845	49.6534	-265.4497	-15.7205	560.7736	1.2626	116.7981	-6.973	43.6832	7.0379	120.111	-0.0592	0.0182	-0.0073	-0.0462	0.0165	0.9585
